<svg xmlns="http://www.w3.org/2000/svg" viewBox="0 0 100 100">
  <!-- Plate -->
  <circle cx="50" cy="55" r="38" fill="#E0E0E0"/>
  <circle cx="50" cy="55" r="32" fill="#F5F5F5"/>
  <circle cx="50" cy="55" r="18" fill="#EEEEEE"/>
  <circle cx="50" cy="55" r="8" fill="#E0E0E0"/>
  <!-- Fork left -->
  <rect x="16" y="20" width="5" height="42" rx="2.5" fill="#9E9E9E"/>
  <rect x="14" y="20" width="2" height="14" rx="1" fill="#9E9E9E"/>
  <rect x="19" y="20" width="2" height="14" rx="1" fill="#9E9E9E"/>
  <rect x="21" y="20" width="2" height="14" rx="1" fill="#9E9E9E"/>
  <!-- Knife right -->
  <rect x="79" y="20" width="5" height="42" rx="2.5" fill="#9E9E9E"/>
  <path d="M79 20 Q84 28 84 36 L79 36 Z" fill="#BDBDBD"/>
  <!-- Spoon -->
  <rect x="55" y="32" width="5" height="36" rx="2.5" fill="#9E9E9E"/>
  <ellipse cx="57.5" cy="28" rx="7" ry="9" fill="#BDBDBD"/>
  <!-- Sparkles -->
  <path d="M58 12 L60 6 L62 12 L68 14 L62 16 L60 22 L58 16 L52 14 Z" fill="#FFD700"/>
  <path d="M78 8 L79.5 4 L81 8 L85 9.5 L81 11 L79.5 15 L78 11 L74 9.5 Z" fill="#FFD700"/>
</svg>
